# xmcd
#
# Track frame offsets:
#	150
#	18047
#	34299
#	48269
#	63726
#	78453
#	89695
#	106994
#	121936
#	137591
#	153620
#	169382
#
# Disc length: 2447 seconds
#
# Revision: 0
# Processed by: cddbd v1.5.2PL0 Copyright (c) Steve Scherf et al.
# Submitted via: EasyCDDAExtractor 4.6.0.1
#
DISCID=9f098d0c
DTITLE=Dolly Parton - Slow Dancing With The Moon
DYEAR=1993
DGENRE=Country
TTITLE0=Full Circle
TTITLE1=Romeo
TTITLE2=A Heartache Tonight
TTITLE3=What Will Baby Be
TTITLE4=More Where That Came From
TTITLE5=Put A Little Love In Your Heart
TTITLE6=Why Can't We
TTITLE7=I'll Make Your Bed
TTITLE8=Whenever Forever Comes
TTITLE9=Cross My Heart
TTITLE10=Slow Dancing With The Moon
TTITLE11=High And Mighty
EXTD=YEAR: 1993
EXTT0=
EXTT1=
EXTT2=
EXTT3=
EXTT4=
EXTT5=
EXTT6=
EXTT7=
EXTT8=
EXTT9=
EXTT10=
EXTT11=
PLAYORDER=
